<mxfile host="Electron" modified="2023-08-11T20:12:41.675Z" agent="Mozilla/5.0 (Windows NT 10.0; Win64; x64) AppleWebKit/537.36 (KHTML, like Gecko) draw.io/21.6.5 Chrome/114.0.5735.243 Electron/25.3.1 Safari/537.36" etag="olI_PKT1wcBdNT4475O-" version="21.6.5" type="device">
  <diagram id="R2lEEEUBdFMjLlhIrx00" name="Page-1">
    <mxGraphModel dx="2734" dy="2202" grid="1" gridSize="10" guides="1" tooltips="1" connect="1" arrows="1" fold="1" page="1" pageScale="1" pageWidth="850" pageHeight="1100" math="0" shadow="0" extFonts="Permanent Marker^https://fonts.googleapis.com/css?family=Permanent+Marker">
      <root>
        <mxCell id="0" />
        <mxCell id="1" parent="0" />
        <mxCell id="XC2ODhsIGOAUa3YbhqNS-5" value="Product_types" style="rounded=0;whiteSpace=wrap;html=1;" parent="1" vertex="1">
          <mxGeometry x="120" y="210" width="120" height="60" as="geometry" />
        </mxCell>
        <mxCell id="XC2ODhsIGOAUa3YbhqNS-8" value="Brands" style="rounded=0;whiteSpace=wrap;html=1;" parent="1" vertex="1">
          <mxGeometry x="-210" y="210" width="120" height="60" as="geometry" />
        </mxCell>
        <mxCell id="XC2ODhsIGOAUa3YbhqNS-10" value="Employees" style="rounded=0;whiteSpace=wrap;html=1;" parent="1" vertex="1">
          <mxGeometry x="640" y="-10" width="120" height="60" as="geometry" />
        </mxCell>
        <mxCell id="XC2ODhsIGOAUa3YbhqNS-13" value="Customers" style="rounded=0;whiteSpace=wrap;html=1;" parent="1" vertex="1">
          <mxGeometry x="380" y="360" width="120" height="60" as="geometry" />
        </mxCell>
        <mxCell id="XC2ODhsIGOAUa3YbhqNS-14" value="Carts" style="rounded=0;whiteSpace=wrap;html=1;" parent="1" vertex="1">
          <mxGeometry x="580" y="280" width="120" height="60" as="geometry" />
        </mxCell>
        <mxCell id="XC2ODhsIGOAUa3YbhqNS-15" value="Bills" style="rounded=0;whiteSpace=wrap;html=1;" parent="1" vertex="1">
          <mxGeometry x="380" y="-10" width="120" height="60" as="geometry" />
        </mxCell>
        <mxCell id="XC2ODhsIGOAUa3YbhqNS-26" value="" style="edgeStyle=orthogonalEdgeStyle;rounded=0;orthogonalLoop=1;jettySize=auto;html=1;endArrow=ERoneToMany;endFill=0;exitX=1;exitY=0.5;exitDx=0;exitDy=0;" parent="1" source="XC2ODhsIGOAUa3YbhqNS-33" target="XC2ODhsIGOAUa3YbhqNS-5" edge="1">
          <mxGeometry relative="1" as="geometry">
            <mxPoint x="70" y="240" as="sourcePoint" />
          </mxGeometry>
        </mxCell>
        <mxCell id="XC2ODhsIGOAUa3YbhqNS-27" value="" style="edgeStyle=orthogonalEdgeStyle;rounded=0;orthogonalLoop=1;jettySize=auto;html=1;endArrow=ERmandOne;endFill=0;exitX=0;exitY=0.5;exitDx=0;exitDy=0;" parent="1" source="XC2ODhsIGOAUa3YbhqNS-33" target="XC2ODhsIGOAUa3YbhqNS-8" edge="1">
          <mxGeometry relative="1" as="geometry">
            <mxPoint x="-60" y="240" as="sourcePoint" />
          </mxGeometry>
        </mxCell>
        <mxCell id="XC2ODhsIGOAUa3YbhqNS-28" value="Categories" style="rounded=0;whiteSpace=wrap;html=1;" parent="1" vertex="1">
          <mxGeometry x="-210" y="450" width="120" height="60" as="geometry" />
        </mxCell>
        <mxCell id="XC2ODhsIGOAUa3YbhqNS-31" value="" style="edgeStyle=orthogonalEdgeStyle;rounded=0;orthogonalLoop=1;jettySize=auto;html=1;exitX=0.5;exitY=0;exitDx=0;exitDy=0;endArrow=ERoneToMany;endFill=0;" parent="1" source="XC2ODhsIGOAUa3YbhqNS-34" target="XC2ODhsIGOAUa3YbhqNS-8" edge="1">
          <mxGeometry relative="1" as="geometry">
            <mxPoint x="-150" y="310" as="sourcePoint" />
          </mxGeometry>
        </mxCell>
        <mxCell id="XC2ODhsIGOAUa3YbhqNS-32" value="" style="edgeStyle=orthogonalEdgeStyle;rounded=0;orthogonalLoop=1;jettySize=auto;html=1;exitX=0.5;exitY=1;exitDx=0;exitDy=0;endArrow=ERoneToMany;endFill=0;" parent="1" source="XC2ODhsIGOAUa3YbhqNS-34" target="XC2ODhsIGOAUa3YbhqNS-28" edge="1">
          <mxGeometry relative="1" as="geometry">
            <mxPoint x="-150" y="420" as="sourcePoint" />
          </mxGeometry>
        </mxCell>
        <mxCell id="XC2ODhsIGOAUa3YbhqNS-33" value="produce" style="shape=rhombus;perimeter=rhombusPerimeter;whiteSpace=wrap;html=1;align=center;" parent="1" vertex="1">
          <mxGeometry x="-50" y="210" width="120" height="60" as="geometry" />
        </mxCell>
        <mxCell id="XC2ODhsIGOAUa3YbhqNS-34" value="details" style="shape=associativeEntity;whiteSpace=wrap;html=1;align=center;" parent="1" vertex="1">
          <mxGeometry x="-220" y="330" width="140" height="60" as="geometry" />
        </mxCell>
        <mxCell id="XC2ODhsIGOAUa3YbhqNS-38" style="edgeStyle=orthogonalEdgeStyle;rounded=0;orthogonalLoop=1;jettySize=auto;html=1;entryX=0;entryY=0.75;entryDx=0;entryDy=0;endArrow=ERoneToMany;endFill=0;" parent="1" source="XC2ODhsIGOAUa3YbhqNS-37" target="XC2ODhsIGOAUa3YbhqNS-5" edge="1">
          <mxGeometry relative="1" as="geometry" />
        </mxCell>
        <mxCell id="XC2ODhsIGOAUa3YbhqNS-40" value="" style="edgeStyle=orthogonalEdgeStyle;rounded=0;orthogonalLoop=1;jettySize=auto;html=1;endArrow=ERmandOne;endFill=0;" parent="1" source="XC2ODhsIGOAUa3YbhqNS-37" target="XC2ODhsIGOAUa3YbhqNS-28" edge="1">
          <mxGeometry relative="1" as="geometry" />
        </mxCell>
        <mxCell id="XC2ODhsIGOAUa3YbhqNS-37" value="has" style="shape=rhombus;perimeter=rhombusPerimeter;whiteSpace=wrap;html=1;align=center;" parent="1" vertex="1">
          <mxGeometry x="-50" y="450" width="120" height="60" as="geometry" />
        </mxCell>
        <mxCell id="XC2ODhsIGOAUa3YbhqNS-66" value="" style="edgeStyle=orthogonalEdgeStyle;rounded=0;orthogonalLoop=1;jettySize=auto;html=1;endArrow=ERmandOne;endFill=0;" parent="1" source="XC2ODhsIGOAUa3YbhqNS-65" target="XC2ODhsIGOAUa3YbhqNS-13" edge="1">
          <mxGeometry relative="1" as="geometry" />
        </mxCell>
        <mxCell id="XC2ODhsIGOAUa3YbhqNS-67" value="" style="edgeStyle=orthogonalEdgeStyle;rounded=0;orthogonalLoop=1;jettySize=auto;html=1;endArrow=ERoneToMany;endFill=0;" parent="1" source="XC2ODhsIGOAUa3YbhqNS-65" target="XC2ODhsIGOAUa3YbhqNS-14" edge="1">
          <mxGeometry relative="1" as="geometry" />
        </mxCell>
        <mxCell id="XC2ODhsIGOAUa3YbhqNS-65" value="checkout" style="shape=rhombus;perimeter=rhombusPerimeter;whiteSpace=wrap;html=1;align=center;" parent="1" vertex="1">
          <mxGeometry x="580" y="370" width="120" height="60" as="geometry" />
        </mxCell>
        <mxCell id="XC2ODhsIGOAUa3YbhqNS-70" style="edgeStyle=orthogonalEdgeStyle;rounded=0;orthogonalLoop=1;jettySize=auto;html=1;endArrow=ERoneToMany;endFill=0;" parent="1" source="XC2ODhsIGOAUa3YbhqNS-68" edge="1">
          <mxGeometry relative="1" as="geometry">
            <mxPoint x="240" y="240" as="targetPoint" />
            <Array as="points">
              <mxPoint x="341" y="240" />
              <mxPoint x="240" y="241" />
            </Array>
          </mxGeometry>
        </mxCell>
        <mxCell id="XC2ODhsIGOAUa3YbhqNS-71" style="edgeStyle=orthogonalEdgeStyle;rounded=0;orthogonalLoop=1;jettySize=auto;html=1;entryX=0;entryY=0.5;entryDx=0;entryDy=0;exitX=0.5;exitY=1;exitDx=0;exitDy=0;endArrow=ERoneToMany;endFill=0;" parent="1" source="XC2ODhsIGOAUa3YbhqNS-68" target="XC2ODhsIGOAUa3YbhqNS-14" edge="1">
          <mxGeometry relative="1" as="geometry" />
        </mxCell>
        <mxCell id="XC2ODhsIGOAUa3YbhqNS-68" value="details" style="shape=associativeEntity;whiteSpace=wrap;html=1;align=center;" parent="1" vertex="1">
          <mxGeometry x="350" y="210" width="140" height="60" as="geometry" />
        </mxCell>
        <mxCell id="XC2ODhsIGOAUa3YbhqNS-81" style="edgeStyle=orthogonalEdgeStyle;rounded=0;orthogonalLoop=1;jettySize=auto;html=1;entryX=0.75;entryY=1;entryDx=0;entryDy=0;endArrow=ERoneToMany;endFill=0;exitX=0.149;exitY=-0.011;exitDx=0;exitDy=0;exitPerimeter=0;" parent="1" source="XC2ODhsIGOAUa3YbhqNS-80" target="XC2ODhsIGOAUa3YbhqNS-5" edge="1">
          <mxGeometry relative="1" as="geometry">
            <Array as="points">
              <mxPoint x="210" y="359" />
            </Array>
          </mxGeometry>
        </mxCell>
        <mxCell id="XC2ODhsIGOAUa3YbhqNS-83" style="edgeStyle=orthogonalEdgeStyle;rounded=0;orthogonalLoop=1;jettySize=auto;html=1;entryX=0;entryY=0.5;entryDx=0;entryDy=0;exitX=0.5;exitY=1;exitDx=0;exitDy=0;endArrow=ERoneToMany;endFill=0;" parent="1" source="XC2ODhsIGOAUa3YbhqNS-80" target="XC2ODhsIGOAUa3YbhqNS-13" edge="1">
          <mxGeometry relative="1" as="geometry">
            <Array as="points">
              <mxPoint x="300" y="390" />
            </Array>
          </mxGeometry>
        </mxCell>
        <mxCell id="XC2ODhsIGOAUa3YbhqNS-80" value="comment" style="shape=associativeEntity;whiteSpace=wrap;html=1;align=center;" parent="1" vertex="1">
          <mxGeometry x="200" y="360" width="140" height="60" as="geometry" />
        </mxCell>
        <mxCell id="XC2ODhsIGOAUa3YbhqNS-85" value="" style="edgeStyle=orthogonalEdgeStyle;rounded=0;orthogonalLoop=1;jettySize=auto;html=1;endArrow=ERmandOne;endFill=0;entryX=0;entryY=0.25;entryDx=0;entryDy=0;" parent="1" source="XC2ODhsIGOAUa3YbhqNS-84" target="XC2ODhsIGOAUa3YbhqNS-68" edge="1">
          <mxGeometry relative="1" as="geometry" />
        </mxCell>
        <mxCell id="XC2ODhsIGOAUa3YbhqNS-86" style="edgeStyle=orthogonalEdgeStyle;rounded=0;orthogonalLoop=1;jettySize=auto;html=1;entryX=0;entryY=0.25;entryDx=0;entryDy=0;exitX=0.5;exitY=0;exitDx=0;exitDy=0;endArrow=ERmandOne;endFill=0;" parent="1" source="XC2ODhsIGOAUa3YbhqNS-84" target="XC2ODhsIGOAUa3YbhqNS-15" edge="1">
          <mxGeometry relative="1" as="geometry">
            <mxPoint x="310" y="20" as="sourcePoint" />
            <Array as="points">
              <mxPoint x="310" y="5" />
            </Array>
          </mxGeometry>
        </mxCell>
        <mxCell id="XC2ODhsIGOAUa3YbhqNS-84" value="has" style="shape=rhombus;perimeter=rhombusPerimeter;whiteSpace=wrap;html=1;align=center;" parent="1" vertex="1">
          <mxGeometry x="250" y="130" width="120" height="60" as="geometry" />
        </mxCell>
        <mxCell id="XC2ODhsIGOAUa3YbhqNS-88" value="" style="edgeStyle=orthogonalEdgeStyle;rounded=0;orthogonalLoop=1;jettySize=auto;html=1;endArrow=ERmandOne;endFill=0;" parent="1" source="XC2ODhsIGOAUa3YbhqNS-87" target="XC2ODhsIGOAUa3YbhqNS-10" edge="1">
          <mxGeometry relative="1" as="geometry" />
        </mxCell>
        <mxCell id="XC2ODhsIGOAUa3YbhqNS-89" value="" style="edgeStyle=orthogonalEdgeStyle;rounded=0;orthogonalLoop=1;jettySize=auto;html=1;endArrow=ERoneToMany;endFill=0;" parent="1" source="XC2ODhsIGOAUa3YbhqNS-87" target="XC2ODhsIGOAUa3YbhqNS-15" edge="1">
          <mxGeometry relative="1" as="geometry" />
        </mxCell>
        <mxCell id="XC2ODhsIGOAUa3YbhqNS-87" value="create" style="shape=rhombus;perimeter=rhombusPerimeter;whiteSpace=wrap;html=1;align=center;" parent="1" vertex="1">
          <mxGeometry x="530" width="90" height="40" as="geometry" />
        </mxCell>
        <mxCell id="XC2ODhsIGOAUa3YbhqNS-108" style="edgeStyle=orthogonalEdgeStyle;rounded=0;orthogonalLoop=1;jettySize=auto;html=1;entryX=0.429;entryY=0.983;entryDx=0;entryDy=0;entryPerimeter=0;exitX=1;exitY=0.5;exitDx=0;exitDy=0;endArrow=ERmandOne;endFill=0;" parent="1" source="XC2ODhsIGOAUa3YbhqNS-107" target="XC2ODhsIGOAUa3YbhqNS-68" edge="1">
          <mxGeometry relative="1" as="geometry" />
        </mxCell>
        <mxCell id="XC2ODhsIGOAUa3YbhqNS-110" style="edgeStyle=orthogonalEdgeStyle;rounded=0;orthogonalLoop=1;jettySize=auto;html=1;exitX=0.5;exitY=1;exitDx=0;exitDy=0;entryX=0.848;entryY=-0.026;entryDx=0;entryDy=0;entryPerimeter=0;endArrow=ERoneToMany;endFill=0;" parent="1" source="XC2ODhsIGOAUa3YbhqNS-107" target="XC2ODhsIGOAUa3YbhqNS-80" edge="1">
          <mxGeometry relative="1" as="geometry" />
        </mxCell>
        <mxCell id="XC2ODhsIGOAUa3YbhqNS-107" value="has" style="shape=rhombus;perimeter=rhombusPerimeter;whiteSpace=wrap;html=1;align=center;" parent="1" vertex="1">
          <mxGeometry x="260" y="280" width="120" height="60" as="geometry" />
        </mxCell>
        <mxCell id="XC2ODhsIGOAUa3YbhqNS-112" style="edgeStyle=orthogonalEdgeStyle;rounded=0;orthogonalLoop=1;jettySize=auto;html=1;endArrow=ERmandOne;endFill=0;" parent="1" source="XC2ODhsIGOAUa3YbhqNS-111" target="XC2ODhsIGOAUa3YbhqNS-10" edge="1">
          <mxGeometry relative="1" as="geometry" />
        </mxCell>
        <mxCell id="XC2ODhsIGOAUa3YbhqNS-113" style="edgeStyle=orthogonalEdgeStyle;rounded=0;orthogonalLoop=1;jettySize=auto;html=1;entryX=0.921;entryY=0.005;entryDx=0;entryDy=0;entryPerimeter=0;endArrow=ERoneToMany;endFill=0;" parent="1" source="XC2ODhsIGOAUa3YbhqNS-111" target="XC2ODhsIGOAUa3YbhqNS-14" edge="1">
          <mxGeometry relative="1" as="geometry" />
        </mxCell>
        <mxCell id="XC2ODhsIGOAUa3YbhqNS-111" value="browsing" style="shape=rhombus;perimeter=rhombusPerimeter;whiteSpace=wrap;html=1;align=center;" parent="1" vertex="1">
          <mxGeometry x="630" y="180" width="120" height="60" as="geometry" />
        </mxCell>
        <mxCell id="8X2_RWd7q2eEr0MVTYHK-3" style="edgeStyle=orthogonalEdgeStyle;rounded=0;orthogonalLoop=1;jettySize=auto;html=1;entryX=1;entryY=1;entryDx=0;entryDy=0;endArrow=ERoneToMany;endFill=0;" edge="1" parent="1" source="8X2_RWd7q2eEr0MVTYHK-2" target="XC2ODhsIGOAUa3YbhqNS-10">
          <mxGeometry relative="1" as="geometry" />
        </mxCell>
        <mxCell id="8X2_RWd7q2eEr0MVTYHK-4" style="edgeStyle=orthogonalEdgeStyle;rounded=0;orthogonalLoop=1;jettySize=auto;html=1;entryX=0.25;entryY=1;entryDx=0;entryDy=0;endArrow=ERoneToMany;endFill=0;" edge="1" parent="1" source="8X2_RWd7q2eEr0MVTYHK-2" target="XC2ODhsIGOAUa3YbhqNS-5">
          <mxGeometry relative="1" as="geometry" />
        </mxCell>
        <mxCell id="8X2_RWd7q2eEr0MVTYHK-2" value="Store" style="shape=associativeEntity;whiteSpace=wrap;html=1;align=center;" vertex="1" parent="1">
          <mxGeometry x="480" y="470" width="140" height="60" as="geometry" />
        </mxCell>
      </root>
    </mxGraphModel>
  </diagram>
</mxfile>
